<?xml version="1.0" encoding="utf-8"?>
<!-- Generator: Adobe Illustrator 26.0.3, SVG Export Plug-In . SVG Version: 6.00 Build 0)  -->
<svg version="1.1" id="Layer_1" xmlns="http://www.w3.org/2000/svg" xmlns:xlink="http://www.w3.org/1999/xlink" x="0px" y="0px"
	 viewBox="0 0 329.57 36.25" style="enable-background:new 0 0 329.57 36.25;" xml:space="preserve">
<style type="text/css">
	.st0{fill:#426DB4;}
</style>
<g>
	<rect x="0.37" y="4.21" class="st0" width="2.65" height="27.69"/>
	<rect x="5.68" y="4.21" class="st0" width="2.65" height="27.69"/>
	<rect x="10.99" y="4.21" class="st0" width="2.65" height="27.69"/>
	<rect x="16.29" y="4.21" class="st0" width="2.65" height="27.69"/>
	<rect x="21.6" y="4.21" class="st0" width="2.65" height="27.69"/>
	<rect x="26.91" y="4.21" class="st0" width="2.65" height="27.69"/>
	<rect x="32.22" y="4.21" class="st0" width="2.65" height="27.69"/>
	<rect x="37.53" y="4.21" class="st0" width="2.65" height="27.69"/>
	<rect x="42.83" y="4.21" class="st0" width="2.65" height="27.69"/>
	<rect x="48.14" y="4.21" class="st0" width="2.65" height="27.69"/>
	<rect x="53.45" y="4.21" class="st0" width="2.65" height="27.69"/>
	<rect x="58.76" y="4.21" class="st0" width="2.65" height="27.69"/>
	<polygon class="st0" points="213.57,17.71 213.57,4.21 174.99,4.21 174.99,8.96 185.32,17.71 	"/>
	<rect x="216.23" y="4.21" class="st0" width="2.65" height="13.5"/>
	<rect x="221.54" y="4.21" class="st0" width="2.65" height="13.5"/>
	<rect x="226.84" y="4.21" class="st0" width="2.65" height="13.5"/>
	<rect x="232.15" y="4.21" class="st0" width="2.65" height="13.5"/>
	<rect x="237.46" y="4.21" class="st0" width="2.65" height="13.5"/>
	<rect x="242.77" y="4.21" class="st0" width="2.65" height="13.5"/>
	<rect x="248.08" y="4.21" class="st0" width="2.65" height="13.5"/>
	<rect x="253.38" y="4.21" class="st0" width="2.65" height="13.5"/>
	<rect x="258.69" y="4.21" class="st0" width="2.65" height="13.5"/>
	<rect x="264" y="4.21" class="st0" width="2.65" height="13.5"/>
	<rect x="269.31" y="4.21" class="st0" width="2.65" height="13.5"/>
	<rect x="274.62" y="4.21" class="st0" width="2.65" height="13.5"/>
	<path class="st0" d="M299.79,4.21L299.79,4.21V0H76.98v4.21l0,0H64.07V31.9h29.53v4.34h166.37V31.9h52.69
		c6.48-5.49,10.11-8.57,16.59-14.07V4.21H299.79z M77.65,4.21V0.56h221.48v3.65l0,0h-18.54v0.01v0.56v15.74h-96.65l-12.27-10.4V4.21
		h-15.21v0.01v0.56v3.61h-42.61l-4.92-4.17l-0.01-0.01H77.65L77.65,4.21z M114.51,8.96h41.95v4.37l18.53,15.71h-36.8L114.51,8.96z
		 M259.3,35.68H94.26V31.9h47.31l-2.71-2.3h36.8l2.71,2.3h80.93V35.68z M328.58,17.61l-8.1,6.86l-8.09,6.87h-52.42h-0.66h-80.66
		l-2.05-1.74h0l-0.66-0.56h0l-18.8-15.95V4.78h1.46V4.78h12.43v5.58l0.19,0.17l12.27,10.4l0.2,0.16h97.58V4.78h18.54V4.78h28.79
		V17.61z"/>
</g>
</svg>
