<?xml version="1.0" encoding="utf-8"?>
<!-- Generator: Adobe Illustrator 26.0.3, SVG Export Plug-In . SVG Version: 6.00 Build 0)  -->
<svg version="1.1" id="Layer_1" xmlns="http://www.w3.org/2000/svg" xmlns:xlink="http://www.w3.org/1999/xlink" x="0px" y="0px"
	 viewBox="0 0 329.57 39.93" style="enable-background:new 0 0 329.57 39.93;" xml:space="preserve">
<style type="text/css">
	.st0{fill:#426DB4;}
</style>
<g>
	<rect x="165.15" y="24.97" class="st0" width="6.97" height="9.41"/>
	<rect x="179.09" y="24.97" class="st0" width="6.97" height="9.41"/>
	<rect x="193.02" y="24.97" class="st0" width="6.97" height="9.41"/>
	<rect x="206.96" y="24.97" class="st0" width="6.97" height="9.41"/>
	<rect x="220.89" y="24.97" class="st0" width="6.97" height="9.41"/>
	<rect x="234.82" y="24.97" class="st0" width="6.97" height="9.41"/>
	<rect x="248.76" y="24.97" class="st0" width="6.97" height="9.41"/>
	<rect x="262.69" y="24.97" class="st0" width="6.97" height="9.41"/>
	<rect x="276.62" y="24.97" class="st0" width="6.97" height="9.41"/>
	<rect x="290.56" y="24.97" class="st0" width="6.97" height="9.41"/>
	<rect x="304.49" y="24.97" class="st0" width="6.97" height="9.41"/>
	<rect x="318.42" y="24.97" class="st0" width="6.97" height="9.41"/>
	<path class="st0" d="M329.57,7.2h-82.56h-69.37l-4.72-4.72h-54.28l-4.72,4.72H10.81L0,18.02v3.47h33.56l6.62,6.62h80.13l6.62-6.62
		h202.64v-7.32h0L329.57,7.2L329.57,7.2z M126.93,20.79h-0.29l-0.2,0.2l-6.41,6.41H40.46l-6.41-6.41l-0.2-0.2h-0.29H0.7v-2.48
		L11.1,7.9h47.93l4.57,4.57h54.28l4.57-4.57h60.63l0.53,0.53l6.24,6.24l0.2,0.2h0.29h38.38l5.92,5.92H126.93z M328.87,20.75h-93.3
		l-6.58-6.58h-38.67l-6.24-6.24h63.65l6.24,6.24h74.9V20.75z"/>
	<polygon class="st0" points="328.87,37.51 156.06,37.51 150.13,31.59 149.43,30.89 149.31,30.89 148.46,30.89 0,30.89 0,31.59 
		14.4,31.59 17.06,34.25 33.21,34.25 64.48,34.25 67.37,34.25 89.54,34.25 96.27,34.25 120.82,34.25 151.81,34.25 155.07,37.51 
		155.76,38.2 156.75,38.2 328.87,38.2 329.57,38.2 329.57,37.51 329.57,24.62 328.87,24.62 	"/>
</g>
</svg>
