<?xml version="1.0" encoding="utf-8"?>
<!-- Generator: Adobe Illustrator 26.0.3, SVG Export Plug-In . SVG Version: 6.00 Build 0)  -->
<svg version="1.1" id="Layer_1" xmlns="http://www.w3.org/2000/svg" xmlns:xlink="http://www.w3.org/1999/xlink" x="0px" y="0px"
	 viewBox="0 0 474.62 39.93" style="enable-background:new 0 0 474.62 39.93;" xml:space="preserve">
<style type="text/css">
	.st0{fill:#436EAF;}
	.st1{fill:#426DB4;}
</style>
<g>
	<path class="st0" d="M473.68,27.15c-123.31,0-273.02,0-396.47,0l-9.14-7.75l-0.28-0.23c-0.3,0-66.51,0-66.86,0v-2.81l4.22-3.58
		h104.56l9.14,7.75l0.28,0.23c112.46,0,241.82,0,354.54,0V27.15z"/>
	<path class="st1" d="M8.12,0.8H132.9l16.95,14.37h-25.51l-9.14-7.75l-0.28-0.23h-0.39H8.12V0.8z"/>
	<polygon class="st1" points="132.49,31.94 44.77,31.94 35.35,23.96 7.18,23.96 26.01,39.93 132.49,39.93 152.12,39.93 
		474.62,39.93 474.62,31.94 152.12,31.94 	"/>
	<path class="st1" d="M241.09,15.97h4.71h0.93h4.71h3.19h2.45h3.19V0h-3.19h-2.45h-3.19h-4.71h-0.93h-4.71H139.95l18.83,15.97
		H241.09z"/>
	<rect x="271.55" class="st1" width="5.64" height="15.97"/>
	<rect x="282.83" class="st1" width="5.64" height="15.97"/>
	<rect x="294.11" class="st1" width="5.64" height="15.97"/>
	<rect x="305.39" class="st1" width="5.64" height="15.97"/>
	<rect x="316.68" class="st1" width="5.64" height="15.97"/>
	<rect x="327.96" class="st1" width="5.64" height="15.97"/>
	<rect x="339.24" class="st1" width="5.64" height="15.97"/>
	<rect x="350.52" class="st1" width="5.64" height="15.97"/>
	<rect x="361.8" class="st1" width="5.64" height="15.97"/>
	<rect x="373.08" class="st1" width="5.64" height="15.97"/>
	<rect x="384.37" class="st1" width="5.64" height="15.97"/>
	<rect x="395.65" class="st1" width="5.64" height="15.97"/>
	<rect x="406.93" class="st1" width="5.64" height="15.97"/>
	<rect x="418.21" class="st1" width="5.64" height="15.97"/>
	<rect x="429.49" class="st1" width="5.64" height="15.97"/>
	<rect x="440.77" class="st1" width="5.64" height="15.97"/>
	<rect x="452.06" class="st1" width="5.64" height="15.97"/>
	<rect x="463.34" class="st1" width="5.64" height="15.97"/>
</g>
</svg>
